<?xml version="1.0" standalone="no"?>
<!DOCTYPE svg PUBLIC "-//W3C//DTD SVG 20010904//EN"
 "http://www.w3.org/TR/2001/REC-SVG-20010904/DTD/svg10.dtd">
<svg version="1.0" xmlns="http://www.w3.org/2000/svg"
 width="500.000000pt" height="500.000000pt" viewBox="0 0 500.000000 500.000000"
 preserveAspectRatio="xMidYMid meet">
<metadata>
Created by potrace 1.14, written by Peter Selinger 2001-2017
</metadata>
<g transform="translate(0.000000,500.000000) scale(0.100000,-0.100000)"
fill="#000000" stroke="none">
<path d="M3269 4956 c-2 -2 -40 -7 -84 -10 -44 -4 -89 -9 -100 -11 -11 -2 -42
-7 -70 -10 -27 -3 -68 -10 -90 -15 -22 -5 -56 -11 -75 -14 -36 -6 -104 -23
-203 -50 -74 -20 -208 -76 -299 -123 -70 -37 -117 -81 -119 -111 -2 -37 3 -77
12 -86 5 -6 -9 -28 -35 -56 -66 -70 -89 -122 -94 -212 l-5 -78 -41 -1 c-538
-10 -1062 -238 -1436 -625 -288 -298 -470 -638 -550 -1030 -31 -150 -35 -201
-34 -429 1 -168 5 -234 23 -332 78 -442 267 -801 590 -1123 256 -255 566 -436
898 -525 197 -54 322 -69 548 -70 172 0 257 6 356 26 30 5 65 12 79 15 14 3
33 7 42 10 9 3 25 7 35 9 236 51 515 188 763 374 81 60 261 235 325 316 21 28
42 52 45 55 12 10 98 137 135 199 183 305 278 631 291 996 3 82 6 150 7 152 1
1 14 4 27 6 46 9 124 34 211 70 l87 35 23 -24 c28 -27 85 -39 122 -25 62 24
193 144 243 222 53 84 75 189 54 253 -12 38 -56 76 -87 76 -18 0 -19 10 -19
193 l1 192 27 35 c71 93 106 236 74 298 -16 31 -61 62 -88 62 -11 0 -14 37
-13 193 l0 192 27 35 c15 20 40 63 55 95 23 49 27 74 28 140 0 98 -16 150 -72
236 -68 106 -171 189 -333 270 -115 57 -356 135 -480 154 -19 3 -57 10 -85 15
-27 5 -79 12 -115 15 -36 4 -78 9 -95 12 -34 6 -501 14 -506 9z"/>
</g>
</svg>
